<mxfile host="app.diagrams.net" agent="Mozilla/5.0 (Windows NT 10.0; Win64; x64; rv:128.0) Gecko/20100101 Firefox/128.0" version="24.7.6">
  <diagram id="C5RBs43oDa-KdzZeNtuy" name="Page-1">
    <mxGraphModel dx="2140" dy="1890" grid="1" gridSize="10" guides="1" tooltips="1" connect="1" arrows="1" fold="1" page="1" pageScale="1" pageWidth="827" pageHeight="1169" math="0" shadow="0">
      <root>
        <mxCell id="WIyWlLk6GJQsqaUBKTNV-0" />
        <mxCell id="WIyWlLk6GJQsqaUBKTNV-1" parent="WIyWlLk6GJQsqaUBKTNV-0" />
        <mxCell id="VaVjKeRcpqaGk_Q-SBMP-0" value="" style="edgeStyle=orthogonalEdgeStyle;rounded=0;orthogonalLoop=1;jettySize=auto;html=1;entryX=0.5;entryY=0;entryDx=0;entryDy=0;" parent="WIyWlLk6GJQsqaUBKTNV-1" source="VaVjKeRcpqaGk_Q-SBMP-1" edge="1">
          <mxGeometry relative="1" as="geometry">
            <mxPoint x="135" y="760" as="targetPoint" />
          </mxGeometry>
        </mxCell>
        <mxCell id="VaVjKeRcpqaGk_Q-SBMP-1" value="&lt;div&gt;increment&lt;/div&gt;&lt;div&gt;cart[selectedCat][selectedItem] by 1&lt;/div&gt;" style="rounded=0;whiteSpace=wrap;html=1;" parent="WIyWlLk6GJQsqaUBKTNV-1" vertex="1">
          <mxGeometry x="30" y="650" width="210" height="50" as="geometry" />
        </mxCell>
        <mxCell id="AatwYJJZV16tKPDF_Xv2-1" value="" style="edgeStyle=orthogonalEdgeStyle;rounded=0;orthogonalLoop=1;jettySize=auto;html=1;" edge="1" parent="WIyWlLk6GJQsqaUBKTNV-1" source="VaVjKeRcpqaGk_Q-SBMP-3" target="AatwYJJZV16tKPDF_Xv2-0">
          <mxGeometry relative="1" as="geometry" />
        </mxCell>
        <mxCell id="VaVjKeRcpqaGk_Q-SBMP-3" value="&lt;div&gt;plus_button&lt;/div&gt;&lt;div&gt;string: sn&lt;/div&gt;" style="strokeWidth=2;html=1;shape=mxgraph.flowchart.terminator;whiteSpace=wrap;" parent="WIyWlLk6GJQsqaUBKTNV-1" vertex="1">
          <mxGeometry x="60" y="10" width="150" height="60" as="geometry" />
        </mxCell>
        <mxCell id="VaVjKeRcpqaGk_Q-SBMP-4" value="end" style="strokeWidth=2;html=1;shape=mxgraph.flowchart.terminator;whiteSpace=wrap;" parent="WIyWlLk6GJQsqaUBKTNV-1" vertex="1">
          <mxGeometry x="85" y="880" width="100" height="60" as="geometry" />
        </mxCell>
        <object label="" id="VaVjKeRcpqaGk_Q-SBMP-5">
          <mxCell style="verticalLabelPosition=bottom;verticalAlign=top;html=1;shape=process;whiteSpace=wrap;rounded=1;size=0.14;arcSize=6;" parent="WIyWlLk6GJQsqaUBKTNV-1" vertex="1">
            <mxGeometry x="75" y="760" width="120" height="80" as="geometry" />
          </mxCell>
        </object>
        <mxCell id="VaVjKeRcpqaGk_Q-SBMP-6" value="update_labels" style="text;html=1;align=center;verticalAlign=middle;whiteSpace=wrap;rounded=0;" parent="WIyWlLk6GJQsqaUBKTNV-1" vertex="1">
          <mxGeometry x="105" y="785" width="60" height="30" as="geometry" />
        </mxCell>
        <mxCell id="VaVjKeRcpqaGk_Q-SBMP-7" style="edgeStyle=orthogonalEdgeStyle;rounded=0;orthogonalLoop=1;jettySize=auto;html=1;exitX=0.5;exitY=1;exitDx=0;exitDy=0;entryX=0.5;entryY=0;entryDx=0;entryDy=0;entryPerimeter=0;" parent="WIyWlLk6GJQsqaUBKTNV-1" source="VaVjKeRcpqaGk_Q-SBMP-5" target="VaVjKeRcpqaGk_Q-SBMP-4" edge="1">
          <mxGeometry relative="1" as="geometry" />
        </mxCell>
        <mxCell id="l5nKs_U1vKEqBApnkezz-30" value="" style="edgeStyle=orthogonalEdgeStyle;rounded=0;orthogonalLoop=1;jettySize=auto;html=1;" parent="WIyWlLk6GJQsqaUBKTNV-1" source="l5nKs_U1vKEqBApnkezz-1" target="l5nKs_U1vKEqBApnkezz-29" edge="1">
          <mxGeometry relative="1" as="geometry" />
        </mxCell>
        <mxCell id="l5nKs_U1vKEqBApnkezz-1" value="&lt;div&gt;decrement&lt;/div&gt;&lt;div&gt;cart[selectedCat][selectedItem] by 1&lt;/div&gt;" style="rounded=0;whiteSpace=wrap;html=1;" parent="WIyWlLk6GJQsqaUBKTNV-1" vertex="1">
          <mxGeometry x="400" y="1180" width="210" height="50" as="geometry" />
        </mxCell>
        <mxCell id="AatwYJJZV16tKPDF_Xv2-32" value="yes" style="edgeStyle=orthogonalEdgeStyle;rounded=0;orthogonalLoop=1;jettySize=auto;html=1;" edge="1" parent="WIyWlLk6GJQsqaUBKTNV-1" source="AatwYJJZV16tKPDF_Xv2-35" target="AatwYJJZV16tKPDF_Xv2-20">
          <mxGeometry relative="1" as="geometry" />
        </mxCell>
        <mxCell id="l5nKs_U1vKEqBApnkezz-3" value="&lt;div&gt;sub_button&lt;/div&gt;&lt;div&gt;string: sn&lt;/div&gt;&lt;div&gt;bool: is_cart_button&lt;br&gt;&lt;/div&gt;" style="strokeWidth=2;html=1;shape=mxgraph.flowchart.terminator;whiteSpace=wrap;" parent="WIyWlLk6GJQsqaUBKTNV-1" vertex="1">
          <mxGeometry x="800" width="130" height="60" as="geometry" />
        </mxCell>
        <mxCell id="l5nKs_U1vKEqBApnkezz-4" value="end" style="strokeWidth=2;html=1;shape=mxgraph.flowchart.terminator;whiteSpace=wrap;" parent="WIyWlLk6GJQsqaUBKTNV-1" vertex="1">
          <mxGeometry x="455" y="1745" width="100" height="60" as="geometry" />
        </mxCell>
        <object label="" id="l5nKs_U1vKEqBApnkezz-5">
          <mxCell style="verticalLabelPosition=bottom;verticalAlign=top;html=1;shape=process;whiteSpace=wrap;rounded=1;size=0.14;arcSize=6;" parent="WIyWlLk6GJQsqaUBKTNV-1" vertex="1">
            <mxGeometry x="445" y="1610" width="120" height="80" as="geometry" />
          </mxCell>
        </object>
        <mxCell id="l5nKs_U1vKEqBApnkezz-6" value="update_labels" style="text;html=1;align=center;verticalAlign=middle;whiteSpace=wrap;rounded=0;" parent="WIyWlLk6GJQsqaUBKTNV-1" vertex="1">
          <mxGeometry x="475" y="1635" width="60" height="30" as="geometry" />
        </mxCell>
        <mxCell id="l5nKs_U1vKEqBApnkezz-7" style="edgeStyle=orthogonalEdgeStyle;rounded=0;orthogonalLoop=1;jettySize=auto;html=1;exitX=0.5;exitY=1;exitDx=0;exitDy=0;entryX=0.5;entryY=0;entryDx=0;entryDy=0;entryPerimeter=0;" parent="WIyWlLk6GJQsqaUBKTNV-1" target="l5nKs_U1vKEqBApnkezz-4" edge="1">
          <mxGeometry relative="1" as="geometry">
            <mxPoint x="505" y="1690" as="sourcePoint" />
          </mxGeometry>
        </mxCell>
        <mxCell id="l5nKs_U1vKEqBApnkezz-23" value="&lt;div&gt;no&lt;/div&gt;" style="edgeStyle=orthogonalEdgeStyle;rounded=0;orthogonalLoop=1;jettySize=auto;html=1;" parent="WIyWlLk6GJQsqaUBKTNV-1" source="l5nKs_U1vKEqBApnkezz-8" target="l5nKs_U1vKEqBApnkezz-22" edge="1">
          <mxGeometry relative="1" as="geometry" />
        </mxCell>
        <mxCell id="l5nKs_U1vKEqBApnkezz-26" value="yes" style="edgeStyle=orthogonalEdgeStyle;rounded=0;orthogonalLoop=1;jettySize=auto;html=1;" parent="WIyWlLk6GJQsqaUBKTNV-1" source="l5nKs_U1vKEqBApnkezz-8" target="l5nKs_U1vKEqBApnkezz-1" edge="1">
          <mxGeometry relative="1" as="geometry" />
        </mxCell>
        <mxCell id="l5nKs_U1vKEqBApnkezz-8" value="&lt;div&gt;if value more than or&lt;/div&gt;&lt;div&gt;equal to one&lt;br&gt;&lt;/div&gt;" style="rhombus;whiteSpace=wrap;html=1;strokeWidth=2;" parent="WIyWlLk6GJQsqaUBKTNV-1" vertex="1">
          <mxGeometry x="437" y="1050" width="136" height="80" as="geometry" />
        </mxCell>
        <mxCell id="l5nKs_U1vKEqBApnkezz-19" value="" style="edgeStyle=orthogonalEdgeStyle;rounded=0;orthogonalLoop=1;jettySize=auto;html=1;" parent="WIyWlLk6GJQsqaUBKTNV-1" source="l5nKs_U1vKEqBApnkezz-17" target="l5nKs_U1vKEqBApnkezz-8" edge="1">
          <mxGeometry relative="1" as="geometry" />
        </mxCell>
        <mxCell id="l5nKs_U1vKEqBApnkezz-17" value="&lt;div&gt;get value stored &lt;br&gt;&lt;/div&gt;&lt;div&gt;in cart at&lt;/div&gt;&lt;div&gt;&amp;nbsp;selectedItem&lt;br&gt;&lt;/div&gt;" style="shape=parallelogram;perimeter=parallelogramPerimeter;whiteSpace=wrap;html=1;fixedSize=1;strokeWidth=2;" parent="WIyWlLk6GJQsqaUBKTNV-1" vertex="1">
          <mxGeometry x="445" y="960" width="120" height="60" as="geometry" />
        </mxCell>
        <mxCell id="l5nKs_U1vKEqBApnkezz-24" style="edgeStyle=orthogonalEdgeStyle;rounded=0;orthogonalLoop=1;jettySize=auto;html=1;entryX=0.5;entryY=0;entryDx=0;entryDy=0;" parent="WIyWlLk6GJQsqaUBKTNV-1" source="l5nKs_U1vKEqBApnkezz-22" target="l5nKs_U1vKEqBApnkezz-38" edge="1">
          <mxGeometry relative="1" as="geometry">
            <mxPoint x="831" y="1210" as="targetPoint" />
          </mxGeometry>
        </mxCell>
        <mxCell id="l5nKs_U1vKEqBApnkezz-22" value="&lt;div&gt;tell user cannot &lt;br&gt;&lt;/div&gt;&lt;div&gt;go below 0&lt;br&gt;&lt;/div&gt;" style="shape=parallelogram;perimeter=parallelogramPerimeter;whiteSpace=wrap;html=1;fixedSize=1;strokeWidth=2;" parent="WIyWlLk6GJQsqaUBKTNV-1" vertex="1">
          <mxGeometry x="661" y="1060" width="120" height="60" as="geometry" />
        </mxCell>
        <mxCell id="l5nKs_U1vKEqBApnkezz-33" value="no" style="edgeStyle=orthogonalEdgeStyle;rounded=0;orthogonalLoop=1;jettySize=auto;html=1;" parent="WIyWlLk6GJQsqaUBKTNV-1" source="l5nKs_U1vKEqBApnkezz-27" edge="1">
          <mxGeometry relative="1" as="geometry">
            <mxPoint x="721" y="1380" as="targetPoint" />
          </mxGeometry>
        </mxCell>
        <mxCell id="l5nKs_U1vKEqBApnkezz-36" value="" style="edgeStyle=orthogonalEdgeStyle;rounded=0;orthogonalLoop=1;jettySize=auto;html=1;" parent="WIyWlLk6GJQsqaUBKTNV-1" source="l5nKs_U1vKEqBApnkezz-27" target="l5nKs_U1vKEqBApnkezz-35" edge="1">
          <mxGeometry relative="1" as="geometry" />
        </mxCell>
        <mxCell id="l5nKs_U1vKEqBApnkezz-27" value="&lt;div&gt;if value is now 0&lt;br&gt;&lt;/div&gt;" style="rhombus;whiteSpace=wrap;html=1;strokeWidth=2;" parent="WIyWlLk6GJQsqaUBKTNV-1" vertex="1">
          <mxGeometry x="437" y="1340" width="136" height="80" as="geometry" />
        </mxCell>
        <mxCell id="l5nKs_U1vKEqBApnkezz-31" value="" style="edgeStyle=orthogonalEdgeStyle;rounded=0;orthogonalLoop=1;jettySize=auto;html=1;" parent="WIyWlLk6GJQsqaUBKTNV-1" source="l5nKs_U1vKEqBApnkezz-29" target="l5nKs_U1vKEqBApnkezz-27" edge="1">
          <mxGeometry relative="1" as="geometry" />
        </mxCell>
        <mxCell id="l5nKs_U1vKEqBApnkezz-29" value="&lt;div&gt;get new value&amp;nbsp;&lt;/div&gt;&lt;div&gt;stored in cart at&lt;/div&gt;&lt;div&gt;&amp;nbsp;selectedItem&lt;br&gt;&lt;/div&gt;" style="shape=parallelogram;perimeter=parallelogramPerimeter;whiteSpace=wrap;html=1;fixedSize=1;strokeWidth=2;" parent="WIyWlLk6GJQsqaUBKTNV-1" vertex="1">
          <mxGeometry x="445" y="1250" width="120" height="60" as="geometry" />
        </mxCell>
        <mxCell id="l5nKs_U1vKEqBApnkezz-37" style="edgeStyle=orthogonalEdgeStyle;rounded=0;orthogonalLoop=1;jettySize=auto;html=1;entryX=0.5;entryY=0;entryDx=0;entryDy=0;" parent="WIyWlLk6GJQsqaUBKTNV-1" source="l5nKs_U1vKEqBApnkezz-35" target="l5nKs_U1vKEqBApnkezz-5" edge="1">
          <mxGeometry relative="1" as="geometry" />
        </mxCell>
        <mxCell id="l5nKs_U1vKEqBApnkezz-35" value="&lt;div&gt;run remove_cart_label with paramaters&lt;/div&gt;&lt;div&gt;selectedItem, and is_cart_button = False&lt;br&gt;&lt;/div&gt;" style="shape=process;whiteSpace=wrap;html=1;backgroundOutline=1;strokeWidth=2;" parent="WIyWlLk6GJQsqaUBKTNV-1" vertex="1">
          <mxGeometry x="412" y="1454.5" width="186" height="60" as="geometry" />
        </mxCell>
        <mxCell id="l5nKs_U1vKEqBApnkezz-39" style="edgeStyle=orthogonalEdgeStyle;rounded=0;orthogonalLoop=1;jettySize=auto;html=1;" parent="WIyWlLk6GJQsqaUBKTNV-1" source="l5nKs_U1vKEqBApnkezz-38" edge="1">
          <mxGeometry relative="1" as="geometry">
            <mxPoint x="511" y="1570" as="targetPoint" />
            <Array as="points">
              <mxPoint x="721" y="1570" />
            </Array>
          </mxGeometry>
        </mxCell>
        <mxCell id="l5nKs_U1vKEqBApnkezz-38" value="&lt;div&gt;make messageBox&lt;/div&gt;&lt;div&gt;with error to inform user&lt;br&gt;&lt;/div&gt;" style="shape=parallelogram;perimeter=parallelogramPerimeter;whiteSpace=wrap;html=1;fixedSize=1;strokeWidth=2;" parent="WIyWlLk6GJQsqaUBKTNV-1" vertex="1">
          <mxGeometry x="661" y="1160" width="120" height="60" as="geometry" />
        </mxCell>
        <mxCell id="AatwYJJZV16tKPDF_Xv2-3" value="" style="edgeStyle=orthogonalEdgeStyle;rounded=0;orthogonalLoop=1;jettySize=auto;html=1;" edge="1" parent="WIyWlLk6GJQsqaUBKTNV-1" source="AatwYJJZV16tKPDF_Xv2-0" target="AatwYJJZV16tKPDF_Xv2-2">
          <mxGeometry relative="1" as="geometry" />
        </mxCell>
        <mxCell id="AatwYJJZV16tKPDF_Xv2-0" value="set cat adn item to 0" style="rounded=0;whiteSpace=wrap;html=1;" vertex="1" parent="WIyWlLk6GJQsqaUBKTNV-1">
          <mxGeometry x="75" y="110" width="120" height="60" as="geometry" />
        </mxCell>
        <mxCell id="AatwYJJZV16tKPDF_Xv2-5" value="&lt;div&gt;yes&lt;/div&gt;" style="edgeStyle=orthogonalEdgeStyle;rounded=0;orthogonalLoop=1;jettySize=auto;html=1;" edge="1" parent="WIyWlLk6GJQsqaUBKTNV-1" source="AatwYJJZV16tKPDF_Xv2-2" target="AatwYJJZV16tKPDF_Xv2-4">
          <mxGeometry relative="1" as="geometry" />
        </mxCell>
        <mxCell id="AatwYJJZV16tKPDF_Xv2-2" value="is cat in cart" style="rhombus;whiteSpace=wrap;html=1;rounded=0;" vertex="1" parent="WIyWlLk6GJQsqaUBKTNV-1">
          <mxGeometry x="80" y="230" width="110" height="80" as="geometry" />
        </mxCell>
        <mxCell id="AatwYJJZV16tKPDF_Xv2-8" value="yes" style="edgeStyle=orthogonalEdgeStyle;rounded=0;orthogonalLoop=1;jettySize=auto;html=1;" edge="1" parent="WIyWlLk6GJQsqaUBKTNV-1" source="AatwYJJZV16tKPDF_Xv2-4" target="AatwYJJZV16tKPDF_Xv2-7">
          <mxGeometry relative="1" as="geometry" />
        </mxCell>
        <mxCell id="AatwYJJZV16tKPDF_Xv2-11" value="no" style="edgeStyle=orthogonalEdgeStyle;rounded=0;orthogonalLoop=1;jettySize=auto;html=1;" edge="1" parent="WIyWlLk6GJQsqaUBKTNV-1" source="AatwYJJZV16tKPDF_Xv2-4" target="AatwYJJZV16tKPDF_Xv2-10">
          <mxGeometry relative="1" as="geometry" />
        </mxCell>
        <mxCell id="AatwYJJZV16tKPDF_Xv2-4" value="is item in cat" style="rhombus;whiteSpace=wrap;html=1;rounded=0;" vertex="1" parent="WIyWlLk6GJQsqaUBKTNV-1">
          <mxGeometry x="80" y="370" width="110" height="80" as="geometry" />
        </mxCell>
        <mxCell id="AatwYJJZV16tKPDF_Xv2-9" value="yes" style="edgeStyle=orthogonalEdgeStyle;rounded=0;orthogonalLoop=1;jettySize=auto;html=1;" edge="1" parent="WIyWlLk6GJQsqaUBKTNV-1" source="AatwYJJZV16tKPDF_Xv2-7" target="VaVjKeRcpqaGk_Q-SBMP-1">
          <mxGeometry relative="1" as="geometry" />
        </mxCell>
        <mxCell id="AatwYJJZV16tKPDF_Xv2-16" value="no" style="edgeStyle=orthogonalEdgeStyle;rounded=0;orthogonalLoop=1;jettySize=auto;html=1;" edge="1" parent="WIyWlLk6GJQsqaUBKTNV-1" source="AatwYJJZV16tKPDF_Xv2-7" target="AatwYJJZV16tKPDF_Xv2-15">
          <mxGeometry relative="1" as="geometry" />
        </mxCell>
        <mxCell id="AatwYJJZV16tKPDF_Xv2-7" value="is item equal to sn" style="rhombus;whiteSpace=wrap;html=1;rounded=0;" vertex="1" parent="WIyWlLk6GJQsqaUBKTNV-1">
          <mxGeometry x="80" y="530" width="110" height="80" as="geometry" />
        </mxCell>
        <mxCell id="AatwYJJZV16tKPDF_Xv2-18" style="edgeStyle=orthogonalEdgeStyle;rounded=0;orthogonalLoop=1;jettySize=auto;html=1;" edge="1" parent="WIyWlLk6GJQsqaUBKTNV-1" source="AatwYJJZV16tKPDF_Xv2-10">
          <mxGeometry relative="1" as="geometry">
            <mxPoint x="140" y="200" as="targetPoint" />
            <Array as="points">
              <mxPoint x="325" y="200" />
              <mxPoint x="280" y="200" />
            </Array>
          </mxGeometry>
        </mxCell>
        <mxCell id="AatwYJJZV16tKPDF_Xv2-10" value="&lt;div&gt;increment cat by 1&lt;/div&gt;" style="whiteSpace=wrap;html=1;rounded=0;" vertex="1" parent="WIyWlLk6GJQsqaUBKTNV-1">
          <mxGeometry x="265" y="380" width="120" height="60" as="geometry" />
        </mxCell>
        <mxCell id="AatwYJJZV16tKPDF_Xv2-17" style="edgeStyle=orthogonalEdgeStyle;rounded=0;orthogonalLoop=1;jettySize=auto;html=1;" edge="1" parent="WIyWlLk6GJQsqaUBKTNV-1" source="AatwYJJZV16tKPDF_Xv2-15">
          <mxGeometry relative="1" as="geometry">
            <mxPoint x="130" y="330" as="targetPoint" />
            <Array as="points">
              <mxPoint x="-30" y="330" />
            </Array>
          </mxGeometry>
        </mxCell>
        <mxCell id="AatwYJJZV16tKPDF_Xv2-15" value="increment item" style="whiteSpace=wrap;html=1;rounded=0;" vertex="1" parent="WIyWlLk6GJQsqaUBKTNV-1">
          <mxGeometry x="-90" y="540" width="120" height="60" as="geometry" />
        </mxCell>
        <mxCell id="AatwYJJZV16tKPDF_Xv2-19" value="" style="edgeStyle=orthogonalEdgeStyle;rounded=0;orthogonalLoop=1;jettySize=auto;html=1;" edge="1" parent="WIyWlLk6GJQsqaUBKTNV-1" source="AatwYJJZV16tKPDF_Xv2-20" target="AatwYJJZV16tKPDF_Xv2-22">
          <mxGeometry relative="1" as="geometry" />
        </mxCell>
        <mxCell id="AatwYJJZV16tKPDF_Xv2-20" value="set cat adn item to 0" style="rounded=0;whiteSpace=wrap;html=1;" vertex="1" parent="WIyWlLk6GJQsqaUBKTNV-1">
          <mxGeometry x="805" y="250" width="120" height="60" as="geometry" />
        </mxCell>
        <mxCell id="AatwYJJZV16tKPDF_Xv2-21" value="&lt;div&gt;yes&lt;/div&gt;" style="edgeStyle=orthogonalEdgeStyle;rounded=0;orthogonalLoop=1;jettySize=auto;html=1;" edge="1" parent="WIyWlLk6GJQsqaUBKTNV-1" source="AatwYJJZV16tKPDF_Xv2-22" target="AatwYJJZV16tKPDF_Xv2-25">
          <mxGeometry relative="1" as="geometry" />
        </mxCell>
        <mxCell id="AatwYJJZV16tKPDF_Xv2-61" style="edgeStyle=orthogonalEdgeStyle;rounded=0;orthogonalLoop=1;jettySize=auto;html=1;entryX=1;entryY=0.5;entryDx=0;entryDy=0;entryPerimeter=0;" edge="1" parent="WIyWlLk6GJQsqaUBKTNV-1" source="AatwYJJZV16tKPDF_Xv2-22" target="l5nKs_U1vKEqBApnkezz-4">
          <mxGeometry relative="1" as="geometry">
            <mxPoint x="830" y="1750" as="targetPoint" />
            <Array as="points">
              <mxPoint x="521" y="380" />
              <mxPoint x="521" y="940" />
              <mxPoint x="840" y="940" />
              <mxPoint x="840" y="1770" />
              <mxPoint x="555" y="1770" />
            </Array>
          </mxGeometry>
        </mxCell>
        <mxCell id="AatwYJJZV16tKPDF_Xv2-22" value="is cat in cart" style="rhombus;whiteSpace=wrap;html=1;rounded=0;" vertex="1" parent="WIyWlLk6GJQsqaUBKTNV-1">
          <mxGeometry x="810" y="340" width="110" height="80" as="geometry" />
        </mxCell>
        <mxCell id="AatwYJJZV16tKPDF_Xv2-23" value="yes" style="edgeStyle=orthogonalEdgeStyle;rounded=0;orthogonalLoop=1;jettySize=auto;html=1;" edge="1" parent="WIyWlLk6GJQsqaUBKTNV-1" source="AatwYJJZV16tKPDF_Xv2-25" target="AatwYJJZV16tKPDF_Xv2-27">
          <mxGeometry relative="1" as="geometry" />
        </mxCell>
        <mxCell id="AatwYJJZV16tKPDF_Xv2-24" value="no" style="edgeStyle=orthogonalEdgeStyle;rounded=0;orthogonalLoop=1;jettySize=auto;html=1;" edge="1" parent="WIyWlLk6GJQsqaUBKTNV-1" source="AatwYJJZV16tKPDF_Xv2-25" target="AatwYJJZV16tKPDF_Xv2-29">
          <mxGeometry relative="1" as="geometry" />
        </mxCell>
        <mxCell id="AatwYJJZV16tKPDF_Xv2-25" value="is item in cat" style="rhombus;whiteSpace=wrap;html=1;rounded=0;" vertex="1" parent="WIyWlLk6GJQsqaUBKTNV-1">
          <mxGeometry x="810" y="480" width="110" height="80" as="geometry" />
        </mxCell>
        <mxCell id="AatwYJJZV16tKPDF_Xv2-26" value="no" style="edgeStyle=orthogonalEdgeStyle;rounded=0;orthogonalLoop=1;jettySize=auto;html=1;" edge="1" parent="WIyWlLk6GJQsqaUBKTNV-1" source="AatwYJJZV16tKPDF_Xv2-27" target="AatwYJJZV16tKPDF_Xv2-31">
          <mxGeometry relative="1" as="geometry" />
        </mxCell>
        <mxCell id="AatwYJJZV16tKPDF_Xv2-41" value="yes" style="edgeStyle=orthogonalEdgeStyle;rounded=0;orthogonalLoop=1;jettySize=auto;html=1;" edge="1" parent="WIyWlLk6GJQsqaUBKTNV-1" source="AatwYJJZV16tKPDF_Xv2-27" target="AatwYJJZV16tKPDF_Xv2-40">
          <mxGeometry relative="1" as="geometry" />
        </mxCell>
        <mxCell id="AatwYJJZV16tKPDF_Xv2-27" value="is item equal to sn" style="rhombus;whiteSpace=wrap;html=1;rounded=0;" vertex="1" parent="WIyWlLk6GJQsqaUBKTNV-1">
          <mxGeometry x="810" y="590" width="110" height="80" as="geometry" />
        </mxCell>
        <mxCell id="AatwYJJZV16tKPDF_Xv2-34" style="edgeStyle=orthogonalEdgeStyle;rounded=0;orthogonalLoop=1;jettySize=auto;html=1;" edge="1" parent="WIyWlLk6GJQsqaUBKTNV-1" source="AatwYJJZV16tKPDF_Xv2-29">
          <mxGeometry relative="1" as="geometry">
            <mxPoint x="870" y="320" as="targetPoint" />
            <Array as="points">
              <mxPoint x="1055" y="320" />
            </Array>
          </mxGeometry>
        </mxCell>
        <mxCell id="AatwYJJZV16tKPDF_Xv2-29" value="&lt;div&gt;increment cat by 1&lt;/div&gt;" style="whiteSpace=wrap;html=1;rounded=0;" vertex="1" parent="WIyWlLk6GJQsqaUBKTNV-1">
          <mxGeometry x="995" y="490" width="120" height="60" as="geometry" />
        </mxCell>
        <mxCell id="AatwYJJZV16tKPDF_Xv2-30" style="edgeStyle=orthogonalEdgeStyle;rounded=0;orthogonalLoop=1;jettySize=auto;html=1;" edge="1" parent="WIyWlLk6GJQsqaUBKTNV-1" source="AatwYJJZV16tKPDF_Xv2-31">
          <mxGeometry relative="1" as="geometry">
            <mxPoint x="860" y="470" as="targetPoint" />
            <Array as="points">
              <mxPoint x="700" y="470" />
            </Array>
          </mxGeometry>
        </mxCell>
        <mxCell id="AatwYJJZV16tKPDF_Xv2-31" value="increment item" style="whiteSpace=wrap;html=1;rounded=0;" vertex="1" parent="WIyWlLk6GJQsqaUBKTNV-1">
          <mxGeometry x="640" y="600" width="120" height="60" as="geometry" />
        </mxCell>
        <mxCell id="AatwYJJZV16tKPDF_Xv2-36" value="" style="edgeStyle=orthogonalEdgeStyle;rounded=0;orthogonalLoop=1;jettySize=auto;html=1;" edge="1" parent="WIyWlLk6GJQsqaUBKTNV-1" source="l5nKs_U1vKEqBApnkezz-3" target="AatwYJJZV16tKPDF_Xv2-35">
          <mxGeometry relative="1" as="geometry">
            <mxPoint x="865" y="60" as="sourcePoint" />
            <mxPoint x="865" y="250" as="targetPoint" />
          </mxGeometry>
        </mxCell>
        <mxCell id="AatwYJJZV16tKPDF_Xv2-37" value="no" style="edgeStyle=orthogonalEdgeStyle;rounded=0;orthogonalLoop=1;jettySize=auto;html=1;" edge="1" parent="WIyWlLk6GJQsqaUBKTNV-1" source="AatwYJJZV16tKPDF_Xv2-35" target="l5nKs_U1vKEqBApnkezz-17">
          <mxGeometry relative="1" as="geometry">
            <mxPoint x="500" y="660" as="targetPoint" />
            <Array as="points">
              <mxPoint x="736" y="150" />
              <mxPoint x="505" y="151" />
            </Array>
          </mxGeometry>
        </mxCell>
        <mxCell id="AatwYJJZV16tKPDF_Xv2-35" value="is_cart_button" style="rhombus;whiteSpace=wrap;html=1;rounded=0;" vertex="1" parent="WIyWlLk6GJQsqaUBKTNV-1">
          <mxGeometry x="810" y="110" width="110" height="80" as="geometry" />
        </mxCell>
        <mxCell id="AatwYJJZV16tKPDF_Xv2-57" value="yes" style="edgeStyle=orthogonalEdgeStyle;rounded=0;orthogonalLoop=1;jettySize=auto;html=1;" edge="1" parent="WIyWlLk6GJQsqaUBKTNV-1" source="AatwYJJZV16tKPDF_Xv2-40" target="AatwYJJZV16tKPDF_Xv2-56">
          <mxGeometry relative="1" as="geometry" />
        </mxCell>
        <mxCell id="AatwYJJZV16tKPDF_Xv2-59" value="" style="edgeStyle=orthogonalEdgeStyle;rounded=0;orthogonalLoop=1;jettySize=auto;html=1;" edge="1" parent="WIyWlLk6GJQsqaUBKTNV-1" source="AatwYJJZV16tKPDF_Xv2-40" target="AatwYJJZV16tKPDF_Xv2-58">
          <mxGeometry relative="1" as="geometry" />
        </mxCell>
        <mxCell id="AatwYJJZV16tKPDF_Xv2-40" value="is value of item 1" style="rhombus;whiteSpace=wrap;html=1;rounded=0;" vertex="1" parent="WIyWlLk6GJQsqaUBKTNV-1">
          <mxGeometry x="790" y="710" width="150" height="80" as="geometry" />
        </mxCell>
        <mxCell id="AatwYJJZV16tKPDF_Xv2-63" style="edgeStyle=orthogonalEdgeStyle;rounded=0;orthogonalLoop=1;jettySize=auto;html=1;" edge="1" parent="WIyWlLk6GJQsqaUBKTNV-1" source="AatwYJJZV16tKPDF_Xv2-56">
          <mxGeometry relative="1" as="geometry">
            <mxPoint x="520" y="850" as="targetPoint" />
          </mxGeometry>
        </mxCell>
        <mxCell id="AatwYJJZV16tKPDF_Xv2-56" value="remove_cart_label with sn and is_cart_button" style="shape=process;whiteSpace=wrap;html=1;backgroundOutline=1;rounded=0;" vertex="1" parent="WIyWlLk6GJQsqaUBKTNV-1">
          <mxGeometry x="800" y="820" width="130" height="60" as="geometry" />
        </mxCell>
        <mxCell id="AatwYJJZV16tKPDF_Xv2-62" style="edgeStyle=orthogonalEdgeStyle;rounded=0;orthogonalLoop=1;jettySize=auto;html=1;" edge="1" parent="WIyWlLk6GJQsqaUBKTNV-1" source="AatwYJJZV16tKPDF_Xv2-58">
          <mxGeometry relative="1" as="geometry">
            <mxPoint x="520" y="750" as="targetPoint" />
          </mxGeometry>
        </mxCell>
        <mxCell id="AatwYJJZV16tKPDF_Xv2-58" value="decrement value of selectedItem by 1" style="whiteSpace=wrap;html=1;rounded=0;" vertex="1" parent="WIyWlLk6GJQsqaUBKTNV-1">
          <mxGeometry x="630" y="720" width="120" height="60" as="geometry" />
        </mxCell>
      </root>
    </mxGraphModel>
  </diagram>
</mxfile>
